<svg xmlns="http://www.w3.org/2000/svg" viewBox="0 0 512 256" fill="currentColor" aria-label="Batman4NY bat logo">
  <!-- Stylized bat silhouette — original design, not the DC Comics symbol -->
  <!-- Central body -->
  <path d="M256 40 L246 62 L256 66 L266 62 Z"/>
  <!-- Head + ears -->
  <path d="M248 46 L242 30 L254 42 Z"/>
  <path d="M264 46 L270 30 L258 42 Z"/>
  <!-- Left wing with scalloped/jagged bottom edge -->
  <path d="M246 62
           L220 58 L210 70 L180 62 L170 74 L140 66 L130 78 L100 70 L90 82 L60 74 L50 86 L20 78 L10 90
           L10 108
           L40 118 L60 108 L90 122 L120 112 L150 126 L180 116 L210 130 L240 120 L256 124
           L256 68
           L246 66 Z"/>
  <!-- Right wing (mirror) -->
  <path d="M266 62
           L292 58 L302 70 L332 62 L342 74 L372 66 L382 78 L412 70 L422 82 L452 74 L462 86 L492 78 L502 90
           L502 108
           L472 118 L452 108 L422 122 L392 112 L362 126 L332 116 L302 130 L272 120 L256 124
           L256 68
           L266 66 Z"/>
</svg>
